<?xml version="1.0" encoding="utf-8"?>
<!-- Generator: Adobe Illustrator 23.0.1, SVG Export Plug-In . SVG Version: 6.00 Build 0)  -->
<svg version="1.1" id="Camada_1" xmlns="http://www.w3.org/2000/svg" xmlns:xlink="http://www.w3.org/1999/xlink" x="0px" y="0px"
	 viewBox="0 0 50 50" style="enable-background:new 0 0 50 50;" xml:space="preserve">
<style type="text/css">
	.st0{fill:#C1272D;}
</style>
<g id="Layer_1">
	<path class="st0" d="M4.7,25.9L25,46.4l20.3-20.5c4.9-5,4.9-13.1,0-18.1c-3.2-3.3-8-4.5-12.4-3.3l-0.4,0.1l-5,10.4h3l-3,6H30
		l-5,6.9V23h-2.7l2-7h-3l2.2-7.4l-0.9-0.9c-2.4-2.4-5.6-3.8-9-3.8c-3.4,0-6.6,1.3-9,3.8C-0.2,12.8-0.2,20.9,4.7,25.9z M13.7,6
		c2.9,0,5.5,1.1,7.6,3.2l0,0L18.7,18h3l-2,7H23v9.1L34,19h-3.3l3-6h-3l3.2-6.7c3.6-0.9,7.4,0.2,10,2.9c4.2,4.2,4.2,11.1,0,15.3
		L25,43.6L6.1,24.5C2,20.3,2,13.4,6.1,9.2C8.2,7.1,10.9,6,13.7,6z"/>
</g>
</svg>
